<?xml version="1.0" encoding="UTF-8" standalone="no"?>
<svg
   viewBox="0 0 48 48"
   width="240"
   height="240"
   version="1.1"
   id="svg9"
   xmlns="http://www.w3.org/2000/svg"
   xmlns:svg="http://www.w3.org/2000/svg">
  <defs
     id="defs9">
    <linearGradient
       id="7BDWD4ZdDeZm~8SgpcfAFa"
       x1="16.903999"
       x2="33.664001"
       y1="47.845001"
       y2="16.325001"
       gradientTransform="matrix(0.53288673,0,0,-0.53288673,11.050472,39.179834)"
       gradientUnits="userSpaceOnUse">
      <stop
         offset="0"
         stop-color="#0077d2"
         id="stop1-3" />
      <stop
         offset="1"
         stop-color="#0b59a2"
         id="stop2-6" />
    </linearGradient>
    <linearGradient
       id="7BDWD4ZdDeZm~8SgpcfAFb"
       x1="19.346001"
       x2="29.122"
       y1="43.252998"
       y2="24.865999"
       gradientTransform="matrix(1,0,0,-1,0,48)"
       gradientUnits="userSpaceOnUse">
      <stop
         offset="0"
         stop-color="#fcfcfc"
         id="stop3-7" />
      <stop
         offset=".495"
         stop-color="#f4f4f4"
         id="stop4-5" />
      <stop
         offset=".869"
         stop-color="#e8e8e8"
         id="stop5-3" />
      <stop
         offset="1"
         stop-color="#e8e8e8"
         id="stop6-5" />
    </linearGradient>
  </defs>
  <linearGradient
     id="HRVHurZmxZb2bftTgcc55a"
     x1="18.921"
     x2="25.143"
     y1="5.7150002"
     y2="26.715"
     gradientUnits="userSpaceOnUse">
    <stop
       offset="0"
       stop-color="#0078d3"
       id="stop1" />
    <stop
       offset="1"
       stop-color="#0858a1"
       id="stop2" />
  </linearGradient>
  <path
     fill="url(#HRVHurZmxZb2bftTgcc55a)"
     d="M 43,29.452 H 5 V 16.554 c 0,-0.686 0.352,-1.325 0.932,-1.691 l 16.466,-10.4 c 0.979,-0.618 2.225,-0.618 3.204,0 l 16.466,10.4 C 42.648,15.23 43,15.868 43,16.554 Z"
     id="path2"
     style="fill:url(#HRVHurZmxZb2bftTgcc55a)" />
  <linearGradient
     id="HRVHurZmxZb2bftTgcc55b"
     x1="24"
     x2="24"
     y1="15.394"
     y2="28.483999"
     gradientUnits="userSpaceOnUse">
    <stop
       offset="0"
       stop-color="#fff"
       id="stop3" />
    <stop
       offset=".24"
       stop-color="#f8f8f7"
       id="stop4" />
    <stop
       offset="1"
       stop-color="#e3e3e1"
       id="stop5" />
  </linearGradient>
  <path
     fill="url(#HRVHurZmxZb2bftTgcc55b)"
     d="M 39,33 H 9 V 16 c 0,-0.552 0.448,-1 1,-1 h 28 c 0.552,0 1,0.448 1,1 z"
     id="path5"
     style="fill:url(#HRVHurZmxZb2bftTgcc55b)" />
  <linearGradient
     id="HRVHurZmxZb2bftTgcc55c"
     x1="25.886"
     x2="37.997002"
     y1="27.936001"
     y2="45.269001"
     gradientUnits="userSpaceOnUse">
    <stop
       offset="0"
       stop-color="#3ccbf4"
       id="stop6" />
    <stop
       offset="1"
       stop-color="#1fa0e5"
       id="stop7" />
  </linearGradient>
  <linearGradient
     id="HRVHurZmxZb2bftTgcc55d"
     x1="3.0739999"
     x2="39.962002"
     y1="27.236"
     y2="45.125"
     gradientUnits="userSpaceOnUse">
    <stop
       offset="0"
       stop-color="#28afea"
       id="stop8" />
    <stop
       offset="1"
       stop-color="#0b88da"
       id="stop9" />
  </linearGradient>
  <path
     fill="url(#7BDWD4ZdDeZm~8SgpcfAFa)"
     d="M 34.609928,25.324778 H 13.06958 c -0.526492,0 -0.953334,-0.426842 -0.953334,-0.953333 v -7.152407 c 0,-0.526492 0.426842,-0.953334 0.953334,-0.953334 h 21.540348 c 0.526492,0 0.953335,0.426842 0.953335,0.953334 v 7.152407 c 0,0.526491 -0.426843,0.953333 -0.953335,0.953333 z"
     id="path2-6"
     style="fill:url(#7BDWD4ZdDeZm~8SgpcfAFa);stroke-width:0.532887" />
  <polygon
     fill="url(#7BDWD4ZdDeZm~8SgpcfAFb)"
     points="4,20 4,7 44,7 44,20 "
     id="polygon6"
     style="fill:url(#7BDWD4ZdDeZm~8SgpcfAFb)"
     transform="matrix(0.53288673,0,0,0.53288673,11.050472,13.60127)" />
  <circle
     cx="21.441765"
     cy="20.795242"
     r="1.3322169"
     fill="#0b5aa4"
     id="circle6"
     style="stroke-width:0.532887" />
  <circle
     cx="16.645782"
     cy="20.795242"
     r="1.3322169"
     fill="#0b5aa4"
     id="circle7"
     style="stroke-width:0.532887" />
  <circle
     cx="26.237745"
     cy="20.795242"
     r="1.3322169"
     fill="#0b5aa4"
     id="circle8"
     style="stroke-width:0.532887" />
  <circle
     cx="31.033726"
     cy="20.795242"
     r="1.3322169"
     fill="#0b5aa4"
     id="circle9"
     style="stroke-width:0.532887" />
  <path
     fill="url(#HRVHurZmxZb2bftTgcc55c)"
     d="M 43,17 V 38.256 C 43,39.219 42.206,40 41.226,40 H 9.56 l 4.803,-6.327 z"
     id="path7"
     style="fill:url(#HRVHurZmxZb2bftTgcc55c)" />
  <path
     fill="url(#HRVHurZmxZb2bftTgcc55d)"
     d="M 5,17 V 38.256 C 5,39.219 5.794,40 6.774,40 h 34.453 c 0.56,0 1.053,-0.26 1.378,-0.658 z"
     id="path9"
     style="fill:url(#HRVHurZmxZb2bftTgcc55d)" />
</svg>
